# Blender 4.4.3
# www.blender.org
mtllib CylinderInside.mtl
o Cylinder
v 0.000000 -1.000000 -1.000000
v 0.000000 1.000000 -1.000000
v 0.707107 -1.000000 -0.707107
v 0.707107 1.000000 -0.707107
v 1.000000 -1.000000 0.000000
v 1.000000 1.000000 0.000000
v 0.707107 -1.000000 0.707107
v 0.707107 1.000000 0.707107
v 0.000000 -1.000000 1.000000
v 0.000000 1.000000 1.000000
v -0.707107 -1.000000 0.707107
v -0.707107 1.000000 0.707107
v -1.000000 -1.000000 0.000000
v -1.000000 1.000000 0.000000
v -0.707107 -1.000000 -0.707107
v -0.707107 1.000000 -0.707107
vn -0.3827 -0.0000 0.9239
vn -0.9239 -0.0000 0.3827
vn -0.9239 -0.0000 -0.3827
vn -0.3827 -0.0000 -0.9239
vn 0.3827 -0.0000 -0.9239
vn 0.9239 -0.0000 -0.3827
vn -0.0000 -1.0000 -0.0000
vn 0.9239 -0.0000 0.3827
vn 0.3827 -0.0000 0.9239
vn -0.0000 1.0000 -0.0000
vt 0.500000 0.453669
vt 0.532761 0.453669
vt 0.532761 0.546331
vt 0.500000 0.546331
vt 0.546331 0.453669
vt 0.546331 0.546331
vt 0.467239 0.453669
vt 0.467239 0.546331
vt 0.453669 0.453669
vt 0.453669 0.546331
s 0
f 1/1/1 3/2/1 4/3/1 2/4/1
f 3/2/2 5/5/2 6/6/2 4/3/2
f 5/5/3 7/2/3 8/3/3 6/6/3
f 7/2/4 9/1/4 10/4/4 8/3/4
f 9/1/5 11/7/5 12/8/5 10/4/5
f 11/7/6 13/9/6 14/10/6 12/8/6
f 4/3/7 6/6/7 8/3/7 10/4/7 12/8/7 14/10/7 16/8/7 2/4/7
f 13/9/8 15/7/8 16/8/8 14/10/8
f 15/7/9 1/1/9 2/4/9 16/8/9
f 1/1/10 15/7/10 13/9/10 11/7/10 9/1/10 7/2/10 5/5/10 3/2/10
